<?xml version="1.0" standalone="no"?>
<!DOCTYPE svg PUBLIC "-//W3C//DTD SVG 20010904//EN"
 "http://www.w3.org/TR/2001/REC-SVG-20010904/DTD/svg10.dtd">
<svg version="1.0" xmlns="http://www.w3.org/2000/svg"
 width="2528.000000pt" height="2528.000000pt" viewBox="0 0 2528.000000 2528.000000"
 preserveAspectRatio="xMidYMid meet">
<metadata>
Created by potrace 1.14, written by Peter Selinger 2001-2017
</metadata>
<g transform="translate(0.000000,2528.000000) scale(0.100000,-0.100000)"
fill="#000000" stroke="none">
<path d="M12977 16614 c-1 -1 -44 -4 -95 -8 -52 -3 -102 -11 -113 -16 -10 -6
-19 -9 -19 -6 0 11 -151 -38 -226 -73 -249 -117 -379 -274 -424 -511 -35 -183
11 -404 110 -535 18 -24 108 -113 138 -137 53 -42 188 -112 276 -143 53 -18
99 -33 101 -33 3 0 38 -6 78 -13 149 -25 394 -14 519 24 26 8 49 12 52 9 4 -3
6 1 6 8 0 7 3 11 6 8 9 -10 194 71 194 85 0 4 5 7 11 7 17 0 94 57 147 108 86
84 139 179 169 302 18 78 25 229 10 248 -6 8 -6 12 1 12 22 0 -36 198 -78 264
-17 26 -30 49 -30 51 0 11 -91 102 -141 141 -54 41 -209 129 -209 118 0 -3
-12 1 -27 10 -79 41 -243 75 -391 79 -35 1 -64 1 -65 1z"/>
<path d="M15609 16018 c0 -7 -2 -249 -4 -538 -1 -289 -4 -525 -5 -525 -1 0 -3
-29 -5 -65 -4 -80 -13 -176 -20 -212 -9 -48 -16 -83 -19 -93 -2 -5 -6 -23 -11
-38 -21 -78 -110 -207 -142 -207 -7 0 -13 -4 -13 -10 0 -5 -5 -10 -10 -10 -6
0 -30 -9 -53 -20 -44 -21 -59 -25 -132 -36 -82 -12 -311 -27 -395 -25 -19 1
-48 1 -65 0 -112 -4 -131 -4 -142 4 -7 5 -13 6 -13 1 0 -5 -51 -9 -112 -9
l-113 0 -1 -612 -1 -613 46 0 c25 -1 307 -1 627 -1 l580 -1 3 -1461 c2 -1521
2 -1577 12 -1577 3 0 6 -6 6 -12 6 -94 35 -233 73 -343 28 -81 91 -215 102
-215 4 0 8 -5 8 -11 0 -16 62 -109 72 -109 4 0 8 -6 8 -13 0 -13 124 -145 190
-202 39 -34 188 -130 201 -130 4 0 14 -6 20 -12 7 -7 16 -13 20 -13 4 0 40
-15 81 -34 40 -19 102 -44 138 -56 72 -24 71 -23 155 -45 84 -22 84 -22 145
-31 60 -9 69 -10 73 -14 1 -1 18 -3 37 -5 19 -1 35 -3 35 -4 0 -2 16 -4 35 -5
119 -10 219 -18 245 -22 35 -5 391 -5 450 0 79 6 231 28 280 40 6 2 28 7 50
11 49 11 47 10 65 18 8 3 40 13 70 22 30 10 59 21 65 26 8 8 16 1163 8 1181
-2 3 -43 -4 -91 -17 -103 -28 -261 -57 -272 -50 -5 3 -11 2 -14 -3 -6 -9 -276
-8 -321 2 -91 20 -154 53 -208 110 -58 60 -104 187 -122 331 -3 22 -8 52 -11
67 -3 15 -7 67 -9 117 -2 50 -6 95 -9 100 -4 5 -2 12 3 16 7 4 7 15 0 32 -6
17 -6 30 1 38 7 9 8 15 1 19 -7 4 -7 15 -1 30 5 13 6 26 3 29 -10 10 -9 66 1
60 6 -4 6 1 2 13 -9 22 -14 124 -6 124 3 0 5 18 5 40 0 22 -2 40 -5 40 -3 0
-5 14 -5 30 0 17 3 30 7 30 4 0 4 10 -1 23 -5 12 -5 32 0 44 5 13 4 25 -1 28
-5 3 -6 16 -1 28 4 12 5 33 1 47 -4 14 -3 35 1 47 5 12 4 25 -1 28 -5 3 -6 15
0 29 4 12 5 28 1 35 -4 6 -5 32 -1 57 4 24 3 47 -1 50 -5 2 -5 15 0 27 4 12 5
33 1 47 -4 14 -3 35 1 47 5 12 4 25 -1 28 -6 3 -6 15 0 29 5 13 6 27 3 30 -6
6 -6 35 0 149 1 26 -2 47 -6 47 -4 0 -3 8 2 19 6 10 8 21 5 24 -8 7 -11 117
-4 117 3 0 5 18 5 40 0 22 -2 40 -5 40 -3 0 -5 14 -5 30 0 17 3 30 7 30 4 0 3
12 -2 26 -7 18 -7 30 0 39 5 6 7 14 4 18 -8 8 -10 107 -2 107 4 0 5 10 2 23
-7 31 -10 127 -4 127 3 0 5 18 5 40 0 22 -2 40 -5 40 -3 0 -5 14 -5 30 0 17 3
30 7 30 4 0 3 12 -2 26 -7 18 -7 30 0 39 5 6 7 14 4 18 -8 7 -11 107 -3 107 8
0 5 33 -5 48 -4 7 -2 14 6 17 7 2 365 3 795 2 l783 -2 1 35 c3 245 0 1180 -5
1188 -5 8 -42 10 -166 12 -8 0 -49 -1 -90 -3 -41 -1 -81 1 -87 6 -7 5 -13 6
-13 1 0 -5 -72 -9 -160 -9 -88 0 -160 2 -160 5 0 3 -9 6 -20 6 -11 0 -20 -3
-20 -6 0 -8 -304 -5 -318 4 -6 4 -12 4 -12 -1 0 -10 -291 -10 -308 1 -7 4 -12
4 -12 -1 0 -6 -151 -9 -203 -4 -5 1 -7 9 -6 19 1 9 0 19 -1 22 -5 15 -4 70 2
70 4 0 4 10 0 23 -5 12 -6 36 -2 52 3 17 3 42 -1 58 -4 15 -4 27 1 27 6 0 5
11 0 26 -7 18 -7 30 0 39 5 6 7 14 4 18 -8 8 -10 107 -2 107 4 0 5 10 2 23 -7
31 -10 127 -4 127 3 0 5 18 5 40 0 22 -2 40 -5 40 -3 0 -5 14 -5 30 0 17 3 30
7 30 4 0 4 11 -1 23 -5 13 -5 30 -1 37 5 8 6 18 3 23 -9 14 -10 68 -1 73 4 3
3 16 -3 31 -6 17 -6 30 1 38 5 6 7 14 4 18 -8 8 -10 107 -2 107 4 0 5 10 2 23
-7 31 -10 127 -4 127 3 0 5 18 5 40 0 22 -2 40 -5 40 -3 0 -5 14 -5 30 0 17 3
30 7 30 4 0 4 10 0 23 -5 12 -6 36 -2 52 3 17 3 42 -1 58 -4 15 -4 27 1 27 6
0 5 11 0 26 -7 18 -7 30 0 39 5 6 7 14 4 18 -8 8 -11 106 -3 110 4 1 3 12 -2
25 l-8 22 -791 0 c-625 0 -790 -3 -791 -12z"/>
<path d="M2329 14336 c-2 -2 -42 -7 -89 -10 -100 -8 -149 -13 -210 -22 -25 -3
-56 -7 -70 -9 -14 -1 -50 -7 -80 -13 -30 -6 -71 -13 -90 -16 -19 -3 -71 -15
-115 -27 -44 -11 -89 -23 -100 -25 -75 -15 -324 -102 -444 -156 -73 -32 -76
-33 -146 -73 -27 -16 -61 -34 -75 -41 -37 -19 -201 -134 -249 -174 -71 -60
-175 -162 -227 -225 -58 -68 -134 -179 -134 -194 0 -6 -4 -11 -9 -11 -5 0 -11
-8 -14 -17 -3 -10 -23 -58 -45 -108 -32 -74 -75 -209 -74 -230 1 -2 -3 -19 -8
-37 -23 -79 -34 -387 -18 -503 13 -90 20 -130 25 -145 3 -8 8 -24 10 -34 11
-58 77 -219 101 -248 8 -10 12 -18 8 -18 -11 0 92 -142 134 -185 11 -12 20
-24 20 -27 0 -12 156 -158 225 -211 70 -53 104 -75 109 -70 3 4 6 2 6 -4 0 -5
29 -25 65 -44 36 -18 65 -37 65 -41 0 -5 5 -8 11 -8 6 0 54 -22 108 -48 79
-40 135 -65 171 -77 3 0 23 -9 45 -20 22 -10 45 -19 50 -21 6 -1 50 -16 99
-34 92 -32 106 -36 321 -95 112 -30 243 -62 335 -80 14 -3 36 -8 50 -11 13 -3
40 -7 58 -10 19 -2 39 -7 44 -10 6 -4 29 -9 52 -11 22 -2 48 -6 56 -7 8 -2 38
-7 65 -11 28 -5 52 -10 55 -10 3 -1 25 -5 50 -9 52 -10 40 -7 200 -40 69 -14
134 -27 145 -29 11 -1 25 -5 30 -9 6 -3 26 -9 45 -12 19 -3 50 -10 68 -15 17
-5 32 -7 32 -4 0 3 6 1 13 -5 6 -5 26 -12 42 -15 17 -3 68 -18 115 -33 47 -15
88 -27 93 -26 4 1 7 -3 7 -8 0 -6 7 -10 16 -10 29 0 128 -63 174 -111 41 -42
66 -80 86 -134 30 -82 20 -228 -20 -290 -9 -13 -17 -28 -18 -32 -3 -13 -101
-103 -127 -118 -87 -47 -195 -94 -251 -109 -118 -31 -136 -34 -275 -53 -119
-15 -476 -7 -592 13 -99 18 -181 38 -205 50 -15 8 -28 12 -28 10 0 -7 -120 44
-140 59 -8 6 -28 17 -43 25 -40 20 -114 96 -144 148 -48 81 -66 153 -66 265 0
31 -3 58 -6 58 -3 1 -359 2 -790 3 l-783 1 5 -155 c3 -85 9 -166 12 -180 3
-14 8 -40 10 -57 2 -18 9 -49 15 -70 6 -21 14 -51 17 -68 2 -16 8 -34 13 -40
4 -5 10 -23 14 -39 7 -28 93 -211 119 -250 6 -11 20 -29 30 -40 9 -11 17 -23
17 -26 0 -4 8 -17 17 -29 10 -11 27 -33 38 -47 130 -167 299 -313 500 -432
113 -67 281 -149 382 -188 37 -14 76 -30 85 -35 10 -5 25 -9 33 -9 8 0 23 -4
33 -10 14 -8 152 -50 212 -65 28 -7 165 -37 190 -41 14 -3 32 -7 40 -9 8 -3
33 -7 55 -10 22 -4 51 -8 65 -11 14 -3 43 -7 65 -9 22 -3 58 -7 80 -10 90 -11
143 -16 206 -19 36 -2 70 -6 76 -9 5 -3 15 -2 22 2 7 5 27 5 45 2 43 -9 420 1
515 13 20 3 61 8 91 11 30 4 66 8 80 10 14 2 50 7 80 10 30 4 64 9 75 12 11 3
40 9 65 14 78 15 104 20 150 30 25 6 52 12 60 14 79 16 341 102 425 139 31 15
64 26 71 26 8 0 14 4 14 9 0 5 14 12 30 16 17 4 30 11 30 16 0 5 3 8 8 7 9 -3
133 60 218 113 106 64 211 146 294 229 95 95 200 220 200 238 0 5 7 16 17 23
9 8 22 28 30 44 7 17 22 45 33 62 25 43 81 173 73 173 -3 0 -1 6 5 13 10 11
39 112 48 167 3 14 7 32 9 40 2 8 7 42 11 75 3 33 8 69 10 80 5 26 5 257 -1
310 -13 134 -34 234 -69 334 -31 86 -86 201 -97 201 -5 0 -9 6 -9 13 0 35
-232 295 -314 352 -15 11 -33 25 -40 31 -20 18 -140 98 -181 120 -58 32 -214
109 -255 127 -19 8 -55 23 -80 34 -25 11 -88 34 -140 52 -52 18 -102 36 -110
39 -23 8 -142 43 -165 47 -11 2 -56 14 -100 26 -91 24 -197 48 -238 55 -16 2
-32 6 -37 9 -4 3 -25 7 -46 10 -22 3 -45 8 -53 11 -8 2 -30 7 -50 10 -20 3
-47 7 -61 10 -14 3 -38 7 -55 10 -16 3 -41 8 -55 10 -44 10 -114 22 -155 29
-53 8 -73 12 -315 62 -14 3 -35 6 -47 6 -13 1 -23 5 -23 8 0 3 -6 6 -12 6 -15
0 -147 31 -168 40 -8 3 -19 7 -25 8 -5 0 -17 4 -25 7 -8 3 -40 13 -70 23 -106
34 -237 104 -296 157 -37 34 -100 118 -88 118 3 0 2 6 -4 13 -20 25 -32 136
-20 187 5 19 11 43 13 53 13 57 117 177 153 177 6 0 12 3 14 8 5 11 125 67
194 90 52 18 186 46 274 58 143 19 350 18 460 -2 19 -3 46 -8 60 -10 14 -3 43
-10 65 -16 22 -6 45 -11 50 -12 6 -1 15 -4 20 -7 6 -4 28 -12 50 -19 56 -18
110 -46 180 -93 66 -45 147 -121 138 -131 -4 -3 -1 -6 5 -6 15 0 56 -80 72
-140 7 -25 14 -79 16 -120 l3 -75 781 -2 782 -1 -5 131 c-5 111 -18 218 -41
322 -24 109 -125 340 -188 430 -53 75 -149 187 -221 258 -88 87 -247 217 -264
217 -5 0 -15 9 -23 20 -8 11 -22 20 -32 20 -10 0 -18 4 -18 8 0 5 -10 14 -22
20 -13 7 -50 28 -83 47 -135 79 -356 173 -535 228 -89 27 -263 72 -315 81 -16
3 -57 10 -90 16 -99 17 -118 20 -175 25 -30 2 -66 7 -80 11 -26 6 -585 16
-591 10z"/>
<path d="M21958 14335 c-2 -1 -45 -6 -96 -9 -95 -7 -157 -14 -202 -22 -14 -3
-38 -7 -55 -8 -57 -6 -326 -61 -355 -73 -8 -4 -22 -7 -30 -7 -8 0 -17 -3 -20
-6 -4 -5 -59 -22 -112 -34 -9 -3 -26 -10 -37 -16 -12 -6 -21 -8 -21 -4 0 3 -7
1 -15 -6 -8 -7 -15 -9 -15 -5 0 4 -6 3 -13 -3 -7 -6 -35 -18 -62 -28 -130 -43
-482 -230 -570 -301 -5 -5 -39 -29 -75 -55 -36 -25 -76 -56 -90 -67 -104 -89
-143 -126 -213 -196 -43 -44 -95 -100 -115 -125 -21 -25 -44 -52 -52 -60 -25
-25 -114 -149 -171 -240 -30 -47 -60 -95 -66 -105 -22 -35 -131 -258 -153
-315 -46 -114 -105 -300 -125 -395 -3 -11 -7 -31 -10 -45 -3 -14 -15 -74 -26
-135 -10 -60 -21 -116 -24 -123 -3 -7 0 -10 5 -7 7 4 7 -3 1 -19 -30 -77 -34
-616 -6 -826 12 -93 37 -242 50 -290 3 -14 8 -36 11 -50 17 -85 90 -318 106
-337 6 -7 8 -13 5 -13 -16 0 129 -303 189 -397 19 -29 31 -53 28 -53 -3 0 1
-7 8 -15 30 -33 38 -45 38 -55 0 -5 5 -10 10 -10 6 0 10 -6 10 -13 0 -7 11
-24 25 -39 14 -15 25 -30 25 -34 0 -3 12 -21 28 -38 15 -18 39 -48 54 -67 49
-63 140 -160 229 -244 81 -77 253 -215 267 -215 6 0 12 -3 14 -8 3 -8 95 -74
118 -85 8 -4 33 -18 55 -32 22 -14 47 -28 55 -32 8 -4 17 -9 20 -13 7 -9 223
-113 300 -145 36 -15 106 -40 155 -57 50 -16 97 -32 105 -35 16 -6 22 -8 60
-17 14 -3 50 -13 80 -21 30 -8 69 -18 85 -21 17 -3 46 -9 65 -14 19 -5 58 -12
85 -16 28 -3 52 -8 55 -9 3 -2 33 -6 65 -10 33 -4 71 -8 85 -10 162 -23 569
-39 602 -23 10 5 19 4 23 -2 4 -6 10 -8 15 -5 4 3 57 7 117 10 59 3 128 7 153
10 25 3 70 7 100 10 65 6 110 14 123 22 6 3 7 1 3 -5 -5 -8 1 -9 21 -2 15 5
46 11 68 14 22 3 51 8 65 11 14 4 39 8 55 10 97 12 465 117 560 159 17 8 41
17 53 21 13 4 49 19 80 33 32 14 59 26 62 26 9 1 165 79 170 86 3 3 26 16 52
29 41 20 186 113 221 141 7 5 50 39 97 76 137 108 227 198 348 344 39 48 124
175 153 230 13 25 27 47 30 50 10 9 64 130 69 155 1 6 5 15 10 20 6 8 29 68
35 95 1 3 4 12 8 20 6 17 24 99 32 150 4 19 10 52 14 73 6 25 5 39 -3 44 -6 4
-359 8 -784 8 l-772 0 -16 -55 c-9 -30 -21 -64 -27 -75 -6 -11 -12 -22 -12
-25 -2 -19 -93 -135 -137 -174 -57 -51 -189 -138 -214 -142 -8 -1 -22 -8 -31
-15 -8 -7 -20 -14 -27 -16 -6 -1 -51 -17 -101 -34 -49 -17 -99 -33 -110 -35
-55 -13 -85 -19 -170 -35 -62 -12 -101 -16 -242 -23 -44 -2 -86 -6 -91 -10 -6
-3 -13 -3 -15 1 -6 9 -89 9 -104 0 -6 -4 -13 -4 -17 0 -3 4 -37 8 -74 9 -59 3
-137 10 -137 14 0 1 -18 3 -39 5 -41 4 -199 41 -226 52 -8 3 -18 7 -22 8 -5 2
-9 3 -10 5 -2 1 -10 3 -19 5 -8 1 -54 21 -102 44 -47 22 -91 41 -96 41 -6 0
-11 5 -11 10 0 6 -11 15 -25 20 -14 5 -31 14 -38 20 -6 5 -39 30 -72 56 -105
82 -265 258 -265 292 0 7 -4 12 -9 12 -25 0 -179 357 -197 460 -3 14 -9 40
-15 58 -16 49 -3 58 83 55 86 -4 66 -4 208 0 63 1 121 -2 128 -6 6 -5 12 -6
12 -1 0 5 72 9 160 9 88 0 160 -2 160 -5 0 -3 9 -6 20 -6 11 0 20 3 20 6 0 3
74 5 165 5 91 0 165 -4 165 -8 0 -5 5 -5 12 -1 16 10 418 11 418 1 0 -5 5 -5
11 -1 16 10 199 11 199 1 0 -5 5 -5 12 -1 15 10 418 11 418 2 0 -4 10 -4 23 0
28 10 108 9 125 -1 6 -5 12 -5 12 0 0 4 72 8 160 8 88 0 160 -2 160 -5 0 -3 9
-6 20 -6 11 0 20 3 20 6 0 8 304 5 318 -4 6 -4 12 -4 12 1 0 10 242 9 258 -1
7 -4 12 -4 12 1 0 4 72 8 160 8 88 0 160 -2 160 -5 0 -3 9 -6 20 -6 11 0 20 3
20 6 0 8 304 5 318 -4 6 -4 12 -4 12 1 0 10 182 9 198 -1 7 -4 12 -3 12 1 0 5
18 8 40 7 22 -1 40 1 41 5 0 3 2 15 5 26 5 28 14 248 14 375 1 145 -11 361
-25 460 -8 62 -27 181 -31 205 -3 11 -7 34 -9 50 -3 17 -19 82 -36 145 -16 63
-31 122 -32 130 -2 9 -6 20 -9 25 -3 6 -11 28 -17 50 -26 86 -87 233 -144 347
-26 54 -47 100 -47 104 1 4 -2 10 -7 13 -12 9 -73 111 -73 122 0 5 -4 9 -10 9
-5 0 -10 6 -10 14 0 8 -3 16 -7 18 -9 3 -53 64 -53 72 0 3 -6 14 -14 23 -8 10
-47 59 -87 108 -39 50 -91 109 -115 133 -24 24 -44 45 -44 47 0 7 -88 87 -175
160 -44 37 -90 76 -103 86 -12 10 -27 19 -32 19 -6 0 -10 5 -10 11 0 5 -4 8
-9 5 -5 -3 -11 1 -15 9 -3 8 -12 15 -20 15 -8 0 -16 3 -18 8 -5 11 -66 52 -78
52 -5 0 -10 4 -10 9 0 5 -8 11 -17 15 -10 3 -40 19 -68 36 -63 38 -246 128
-305 151 -25 9 -58 22 -75 29 -16 8 -32 14 -35 15 -3 0 -23 7 -45 14 -56 18
-64 20 -73 22 -4 1 -23 9 -42 17 -19 8 -36 14 -37 13 -2 0 -4 -1 -5 0 -2 0
-10 2 -18 4 -8 2 -35 8 -60 15 -59 15 -159 38 -196 44 -16 3 -40 8 -54 10 -14
3 -43 8 -65 11 -22 4 -51 8 -65 10 -14 3 -52 7 -85 10 -33 3 -82 8 -110 11
-55 6 -582 14 -587 9z m520 -1198 c96 -11 284 -59 310 -80 6 -5 12 -7 12 -3 0
15 240 -117 248 -136 2 -5 8 -8 13 -8 16 0 171 -146 218 -205 57 -74 128 -200
162 -290 4 -11 12 -33 18 -50 6 -16 13 -39 16 -50 2 -11 11 -47 19 -80 8 -33
17 -79 20 -101 l4 -41 -1342 0 -1343 0 9 36 c5 20 12 43 15 51 4 8 7 17 8 20
32 129 157 367 249 478 71 86 257 252 282 252 4 0 15 6 23 14 59 53 337 159
471 180 88 13 115 18 118 21 5 5 416 -2 470 -8z"/>
<path d="M6206 14243 c-3 -3 -62 -7 -130 -7 -68 -1 -128 -4 -132 -8 -9 -9 -8
-3398 0 -3553 4 -60 8 -123 10 -140 2 -16 7 -57 10 -90 4 -33 9 -67 11 -75 2
-8 6 -35 9 -60 5 -38 40 -209 61 -300 13 -52 68 -215 76 -225 5 -5 9 -15 9
-23 0 -43 188 -372 272 -476 72 -88 280 -276 307 -276 5 0 11 -4 13 -8 4 -10
156 -100 211 -125 106 -48 193 -81 262 -97 28 -7 57 -14 65 -17 17 -7 23 -8
105 -22 119 -21 165 -27 280 -36 84 -7 362 -7 419 0 23 2 68 7 101 10 33 2 69
6 80 9 11 2 54 10 95 17 81 14 89 15 93 19 1 1 14 4 28 6 14 2 73 20 130 39
57 19 109 37 114 38 65 22 299 138 325 162 9 8 20 15 23 15 4 0 25 12 46 28
21 15 49 34 61 42 116 77 294 247 388 370 15 19 32 41 39 47 6 7 22 29 35 50
l23 38 5 -400 5 -400 48 2 c26 1 51 4 55 7 4 3 14 1 22 -4 8 -5 21 -5 31 1 11
6 20 5 24 -1 4 -7 12 -7 25 0 11 6 21 6 25 1 3 -6 17 -6 35 -1 18 5 32 5 35
-1 4 -5 14 -5 25 1 13 7 21 7 25 0 4 -6 13 -7 23 -1 11 6 24 6 34 0 10 -6 26
-5 42 1 15 5 26 6 26 0 0 -5 12 -5 30 0 19 5 30 5 30 -1 0 -6 4 -7 10 -4 15 9
81 12 86 4 3 -5 16 -4 29 1 15 6 27 6 30 -1 4 -5 11 -7 16 -3 13 8 79 11 79 4
0 -3 17 -4 38 -2 50 4 54 4 77 -1 11 -2 28 0 37 4 10 6 19 5 23 -1 4 -6 15 -6
30 0 16 6 25 6 25 0 0 -6 10 -6 26 0 15 6 32 6 42 1 11 -6 24 -6 34 0 11 6 19
6 23 -1 4 -7 12 -7 25 0 11 6 21 6 25 1 3 -6 17 -6 35 -1 18 5 32 5 35 -1 4
-5 14 -5 25 1 13 7 21 7 25 0 4 -7 12 -7 23 -1 10 6 23 6 34 0 10 -5 27 -5 42
1 15 5 26 6 26 0 0 -5 12 -5 30 0 18 5 30 5 30 0 0 -6 11 -5 26 0 16 6 32 7
43 1 17 -10 18 111 18 2710 0 1495 -3 2720 -6 2720 -8 2 -83 9 -96 9 -5 0 -50
0 -100 0 -49 0 -97 0 -105 0 -8 0 -49 -1 -90 -3 -41 -1 -81 1 -87 6 -7 5 -13
6 -13 1 0 -5 -72 -9 -160 -9 -88 0 -160 2 -160 5 0 3 -9 6 -20 6 -11 0 -20 -3
-20 -6 0 -8 -365 -5 -378 4 -7 4 -12 4 -12 -1 0 -4 -33 -7 -72 -5 -40 1 -80 2
-88 2 -8 0 -52 -1 -97 -2 l-83 -1 -1 -1426 c-1 -784 -2 -1439 -4 -1456 -9
-103 -21 -182 -40 -265 -3 -14 -8 -36 -11 -49 -3 -14 -7 -28 -10 -33 -3 -5 -8
-20 -10 -35 -3 -14 -19 -63 -37 -107 -17 -45 -32 -83 -32 -86 -1 -3 -18 -39
-38 -80 -143 -289 -377 -513 -632 -603 -114 -40 -198 -52 -365 -52 -158 1
-227 7 -272 24 -14 5 -29 7 -32 4 -3 -3 -12 0 -21 7 -8 7 -15 9 -15 5 0 -4 -7
-1 -17 6 -9 8 -19 13 -22 13 -12 -3 -108 38 -136 58 -161 117 -259 245 -325
426 -16 44 -26 82 -23 86 4 3 2 6 -4 6 -5 0 -10 6 -10 13 0 6 -6 39 -13 72
-13 64 -15 78 -25 140 -3 22 -8 51 -10 65 -16 86 -18 340 -20 1720 -2 844 -3
1539 -4 1544 0 4 -7 6 -15 3 -7 -3 -19 0 -25 6 -6 6 -11 7 -11 1 0 -11 -220
-11 -238 0 -7 4 -12 4 -12 -1 0 -4 -49 -8 -110 -8 -60 0 -110 4 -110 8 0 5 -5
5 -12 1 -17 -11 -221 -11 -235 0 -7 5 -13 5 -13 0 0 -5 -72 -9 -160 -9 -88 0
-160 4 -160 8 0 5 -5 5 -11 1 -16 -10 -160 -12 -180 -2 -9 4 -19 5 -23 1z"/>
<path d="M12500 14244 c0 -5 -63 -8 -140 -8 l-139 1 0 -2712 c0 -2281 2 -2715
14 -2725 9 -8 15 -8 20 0 3 6 11 8 16 4 14 -9 89 -10 89 -2 0 4 14 3 30 -2 18
-5 30 -5 30 0 0 6 10 6 25 0 14 -5 25 -6 25 -2 0 9 47 8 56 -1 3 -3 17 -2 30
3 14 6 26 6 29 -1 4 -5 11 -7 16 -3 13 8 79 11 79 4 0 -7 65 -4 77 3 5 3 15 2
23 -3 7 -4 24 -4 36 0 14 6 26 5 29 0 3 -6 15 -6 30 0 15 6 27 6 30 -1 4 -5
11 -7 16 -3 13 8 79 11 79 4 0 -3 17 -4 38 -2 50 4 54 4 77 -1 11 -2 28 0 37
4 10 6 19 5 23 -1 4 -6 15 -6 30 0 16 6 25 6 25 0 0 -6 10 -6 26 0 15 6 32 6
42 1 11 -6 24 -6 34 0 11 6 19 6 23 -1 4 -7 12 -7 25 0 11 6 21 6 25 1 3 -6
17 -6 35 -1 18 5 32 5 35 -1 4 -5 14 -5 25 1 13 7 21 7 25 0 4 -7 12 -7 24 0
10 5 21 7 24 4 9 -10 42 -12 58 -3 8 4 21 4 29 -1 8 -5 21 -5 31 1 11 6 20 5
24 -1 4 -6 12 -7 22 -1 9 4 24 6 34 4 12 -3 19 0 20 8 0 8 1 1230 2 2717 2
2394 0 2703 -13 2706 -8 2 -53 3 -100 2 -47 -1 -91 2 -97 7 -7 5 -13 6 -13 1
0 -11 -311 -11 -328 0 -7 4 -12 4 -12 -1 0 -10 -221 -9 -238 1 -7 4 -12 4 -12
-1 0 -4 -49 -8 -110 -8 -60 0 -110 4 -110 8 0 5 -5 5 -12 1 -17 -11 -221 -11
-235 0 -7 5 -13 5 -13 0z"/>
</g>
</svg>
